<svg width="14" height="14" viewBox="0 0 14 14" fill="none" xmlns="http://www.w3.org/2000/svg">
<g clip-path="url(#clip0_101_6480)">
<path d="M11.9429 2.5477C11.9427 2.54752 11.9426 2.54739 11.9424 2.54721L10.0371 1.8916L6.71106 2.54724V3.99808L12.1595 4.89696L13.1311 3.99808C12.8152 3.45229 12.4128 2.96243 11.9429 2.5477Z" fill="#E7A52E"/>
<path d="M11.9424 11.252L9.45558 10.7788L6.71106 11.252V12.7028H8.10434C9.56144 12.7028 10.893 12.1657 11.9121 11.2789" fill="#E7A52E"/>
<path d="M6.71106 9.80121L10.6349 10.3692L13.1311 9.80118C13.3909 9.35212 13.5924 8.86508 13.7249 8.35034L10.8058 7.50879L6.71106 8.35034V9.80121Z" fill="#E7A52E"/>
<path d="M13.7249 5.44888L11.9424 4.38428L6.71106 5.44888V6.89973L12.423 7.93109L13.9077 6.89973C13.9077 6.39867 13.8443 5.91264 13.7249 5.44888Z" fill="#E7A52E"/>
<path d="M13.0986 6.89955C13.0986 3.69444 10.5003 1.09619 7.29521 1.09619C7.09805 1.09619 6.90323 1.10612 6.71112 1.12534V12.7029H7.29521C10.5003 12.7029 13.0986 10.1047 13.0986 6.89955Z" fill="#E28424"/>
<path d="M11.9424 2.54704C10.9194 1.64425 9.57599 1.09619 8.10434 1.09619H6.71106V2.54704H11.9424Z" fill="#C85929"/>
<path d="M6.71106 5.44889H13.7249C13.5924 4.93415 13.3909 4.44713 13.1311 3.99805H6.71106V5.44889Z" fill="#C85929"/>
<path d="M6.71106 8.35026H13.7249C13.8442 7.88652 13.9077 7.4004 13.9077 6.89941H6.71106V8.35026Z" fill="#C85929"/>
<path d="M6.71106 11.2521H11.9424C12.4126 10.8372 12.8152 10.3475 13.1311 9.80127H6.71106V11.2521Z" fill="#C85929"/>
<path d="M12.3219 9.80127H6.71106V11.2521H11.1332C11.6034 10.8372 12.006 10.3474 12.3219 9.80127Z" fill="#B94029"/>
<path d="M13.0986 6.89941H6.71112V8.35026H12.9157C13.0351 7.88652 13.0986 7.4004 13.0986 6.89941Z" fill="#B94029"/>
<path d="M12.3219 3.99805H6.71106V5.44889H12.9157C12.7832 4.93415 12.5817 4.44713 12.3219 3.99805Z" fill="#B94029"/>
<path d="M7.29515 1.09619C7.09799 1.09619 6.90317 1.10612 6.71106 1.12534V2.54704H11.1332C10.1102 1.64425 8.76679 1.09619 7.29515 1.09619Z" fill="#B94029"/>
<path d="M6.71107 12.7029C9.91618 12.7029 12.5144 10.1047 12.5144 6.89955C12.5144 3.69444 9.91618 1.09619 6.71107 1.09619C3.50597 1.09619 0.907715 3.69444 0.907715 6.89955C0.907715 10.1047 3.50597 12.7029 6.71107 12.7029Z" fill="#F6E266"/>
<path d="M2.85919 11.2399C3.15258 11.5005 3.47232 11.732 3.81431 11.9293L5.40623 1.24365C5.01844 1.33275 4.64563 1.46092 4.29183 1.62342L2.85919 11.2399Z" fill="#FBF4AF"/>
<path d="M6.71119 1.09619C6.60571 1.09619 6.50095 1.09919 6.39685 1.10475C9.45579 1.26804 11.8859 3.79991 11.8859 6.89955C11.8859 9.99918 9.45576 12.5311 6.39685 12.6944C6.50095 12.6999 6.60571 12.7029 6.71119 12.7029C9.9163 12.7029 12.5145 10.1047 12.5145 6.89957C12.5145 3.69446 9.9163 1.09619 6.71119 1.09619Z" fill="#EAB14D"/>
<path d="M6.71106 11.5732C9.29235 11.5732 11.3849 9.4807 11.3849 6.89942C11.3849 4.31813 9.29235 2.22559 6.71106 2.22559C4.12978 2.22559 2.03723 4.31813 2.03723 6.89942C2.03723 9.4807 4.12978 11.5732 6.71106 11.5732Z" fill="#E7A52E"/>
<path d="M6.71105 2.22559C6.59415 2.22559 6.47827 2.23 6.36353 2.23846C8.78249 2.41627 10.6898 4.43505 10.6898 6.89942C10.6898 9.36378 8.78252 11.3826 6.36353 11.5604C6.47829 11.5688 6.59415 11.5732 6.71105 11.5732C9.29233 11.5732 11.3849 9.4807 11.3849 6.89942C11.3849 4.31813 9.29233 2.22559 6.71105 2.22559Z" fill="#E28424"/>
<path d="M3.06946 9.82874C3.3371 10.1611 3.64913 10.4561 3.9968 10.7046L5.22395 2.46729C4.81494 2.60447 4.43123 2.79673 4.08153 3.03517L3.06946 9.82874Z" fill="#EAB14D"/>
<path d="M6.85387 4.32493L7.73617 5.68041C7.75905 5.71557 7.79411 5.74104 7.83463 5.75193L9.39641 6.17217C9.51529 6.20417 9.56198 6.34785 9.48459 6.4436L8.4681 7.70158C8.44175 7.73421 8.42834 7.77541 8.4305 7.81731L8.51343 9.43251C8.51975 9.55545 8.39752 9.64424 8.28255 9.60026L6.77204 9.02227C6.73286 9.00729 6.68952 9.00729 6.65034 9.02227L5.13983 9.60026C5.02486 9.64427 4.90263 9.55545 4.90895 9.43251L4.99187 7.81731C4.99403 7.77541 4.98063 7.73421 4.95427 7.70158L3.93778 6.4436C3.86042 6.34785 3.90709 6.20417 4.02596 6.17217L5.58774 5.75193C5.62824 5.74104 5.6633 5.71555 5.68621 5.68041L6.5685 4.32493C6.63564 4.22177 6.78671 4.22177 6.85387 4.32493Z" fill="#C85929"/>
<path d="M9.39611 6.17181L7.83433 5.75157C7.79384 5.74066 7.75877 5.71519 7.73587 5.68005L7.66158 5.56592C7.65411 6.42714 7.52985 7.8138 6.91974 9.07856L8.28225 9.59993C8.39722 9.64393 8.51945 9.55511 8.51313 9.43217L8.4302 7.81697C8.42804 7.77508 8.44145 7.73387 8.46781 7.70124L9.48429 6.44327C9.56166 6.34747 9.51497 6.20381 9.39611 6.17181Z" fill="#B94029"/>
</g>
<defs>
<clipPath id="clip0_101_6480">
<rect width="13" height="13" fill="white" transform="translate(0.907715 0.399414)"/>
</clipPath>
</defs>
</svg>
